<?xml version="1.0" encoding="UTF-8"?>
<svg id="Livello_2" data-name="Livello 2" xmlns="http://www.w3.org/2000/svg" xmlns:xlink="http://www.w3.org/1999/xlink" viewBox="0 0 198.83 320.5">
  <defs>
    <style>
      .cls-1 {
        fill: #fff;
      }

      .cls-1, .cls-2, .cls-3 {
        fill-rule: evenodd;
      }

      .cls-2 {
        fill: #ea332d;
      }

      .cls-4 {
        clip-path: url(#clippath-1);
      }

      .cls-5 {
        clip-path: url(#clippath);
      }

      .cls-6 {
        fill: none;
      }
    </style>
    <clipPath id="clippath">
      <polygon id="SVGID" class="cls-6" points="145.97 126.92 169.74 146.75 100.74 171.82 24.93 144.82 54.8 124.99 73.03 121.88 81.9 110.95 113.87 110.95 125.15 123.81 145.97 126.92"/>
    </clipPath>
    <clipPath id="clippath-1">
      <path id="SVGID-2" data-name="SVGID" class="cls-6" d="M139.27,64.22c0-20.55-16.69-37.24-37.24-37.24h0c-20.58,0-37.24,16.69-37.24,37.24v29.22c0,20.55,24.81,37.24,37.24,37.24s37.24-16.69,37.24-37.24v-29.22Z"/>
    </clipPath>
  </defs>
  <g id="OBJECTS">
    <g>
      <path d="M0,292.35v-44.43H5.83l13.26,22.48c3.07,5.21,5.46,9.89,7.43,14.44l.12-.07c-.49-5.93-.61-11.34-.61-18.26v-18.59h5.03v44.43h-5.4l-13.14-22.54c-2.89-4.94-5.65-10.02-7.74-14.83l-.18,.07c.31,5.6,.43,10.94,.43,18.33v18.98H0Z"/>
      <path d="M58.03,247.92v44.43h-5.34v-44.43h5.34Z"/>
      <path d="M79.65,292.35v-44.43h5.83l13.26,22.48c3.07,5.21,5.46,9.89,7.43,14.44l.12-.07c-.49-5.93-.61-11.34-.61-18.26v-18.59h5.04v44.43h-5.4l-13.14-22.54c-2.89-4.94-5.65-10.02-7.74-14.83l-.18,.07c.31,5.6,.43,10.94,.43,18.33v18.98h-5.04Z"/>
      <path d="M140.81,247.92h5.34v29.73c0,11.8-5.4,15.42-12.53,15.42-1.96,0-4.36-.46-5.71-1.05l.8-4.68c1.11,.46,2.7,.86,4.48,.86,4.79,0,7.61-2.31,7.61-11.01v-29.27Z"/>
      <path d="M174.03,278.38l-4.3,13.97h-5.53l14.06-44.43h6.45l14.12,44.43h-5.71l-4.42-13.97h-14.67Zm13.57-4.48l-4.05-12.79c-.92-2.9-1.54-5.54-2.15-8.11h-.12c-.61,2.64-1.29,5.34-2.09,8.04l-4.05,12.85h12.46Z"/>
    </g>
    <g>
      <path d="M55.22,318.24c.7,.46,1.73,.85,2.8,.85,1.6,0,2.53-.91,2.53-2.22,0-1.22-.65-1.91-2.28-2.59-1.98-.75-3.2-1.85-3.2-3.69,0-2.03,1.56-3.53,3.92-3.53,1.24,0,2.14,.31,2.68,.64l-.43,1.37c-.4-.23-1.2-.62-2.3-.62-1.65,0-2.28,1.06-2.28,1.95,0,1.22,.74,1.81,2.41,2.51,2.05,.85,3.09,1.91,3.09,3.82,0,2.01-1.38,3.75-4.24,3.75-1.17,0-2.44-.37-3.09-.83l.4-1.41Z"/>
      <path d="M80.24,307.28v5.44h5.86v-5.44h1.58v13.01h-1.58v-6.1h-5.86v6.1h-1.56v-13.01h1.56Z"/>
      <path d="M115.13,313.65c0,4.48-2.54,6.85-5.63,6.85s-5.45-2.66-5.45-6.6c0-4.13,2.39-6.83,5.63-6.83s5.45,2.72,5.45,6.58Zm-9.4,.21c0,2.78,1.4,5.27,3.87,5.27s3.88-2.45,3.88-5.4c0-2.59-1.26-5.29-3.86-5.29s-3.88,2.57-3.88,5.42Z"/>
      <path d="M131.55,307.43c.75-.13,1.74-.25,3-.25,1.55,0,2.68,.39,3.4,1.08,.67,.62,1.06,1.56,1.06,2.72s-.32,2.1-.93,2.78c-.83,.95-2.17,1.43-3.7,1.43-.47,0-.9-.02-1.26-.12v5.21h-1.56v-12.86Zm1.56,6.27c.34,.1,.77,.13,1.29,.13,1.89,0,3.04-.98,3.04-2.78s-1.13-2.55-2.86-2.55c-.68,0-1.2,.06-1.47,.13v5.06Z"/>
    </g>
    <g id="Page-2">
      <path class="cls-2" d="M176.76,79.41C176.76,35.57,141.17,0,97.33,0S17.9,35.57,17.9,79.41v65.1c0,43.84,35.59,79.41,79.43,79.41s79.43-35.57,79.43-79.41V79.41Z"/>
      <g id="OBJECTS1">
        <g>
          <g>
            <path class="cls-3" d="M145.97,126.92l23.77,19.83-69,25.07-75.81-27,29.87-19.83,18.24-3.11,8.87-10.93h31.96l11.28,12.86,20.82,3.11Z"/>
            <g class="cls-5">
              <g>
                <path class="cls-2" d="M33.15,134.95l41.49,17.68-36.42-22.13"/>
                <path class="cls-2" d="M165.98,131.86l-41.3,18.1,41.07-11.36"/>
                <path class="cls-2" d="M154.06,121.62l-41.3,18.1,41.07-11.36"/>
                <path class="cls-2" d="M47.06,123.82l39.14,22.4-33.59-26.22"/>
              </g>
            </g>
          </g>
          <g>
            <path class="cls-3" d="M139.27,64.22c0-20.55-16.69-37.24-37.24-37.24h0c-20.58,0-37.24,16.69-37.24,37.24v29.22c0,20.55,24.81,37.24,37.24,37.24s37.24-16.69,37.24-37.24v-29.22Z"/>
            <g class="cls-4">
              <path class="cls-1" d="M132.59,74.11c-21.74,7-42.1,6.92-61.15,0,0,0-2.5,16.96,9.06,20.69,13.28,4.32,17.49-3.02,21.51-2.82,3.49,.14,8.3,7.72,20.1,5.04,12.42-2.79,10.48-22.91,10.48-22.91Z"/>
            </g>
          </g>
          <path class="cls-3" d="M78.76,81.4l14.61,6.33s-8.64,8.72-14.61-6.33Z"/>
          <path class="cls-3" d="M124.23,81.4l-14.61,6.33s8.64,8.72,14.61-6.33Z"/>
          <path class="cls-3" d="M67.07,87.53s-17.69-2.35-24.71-20.73l-10.79,12.7s20.58,20.89,35.5,8.03Z"/>
          <path class="cls-3" d="M69.25,84.78s-13.25,15.73-35.47,11.16l5.66,18.37s33.07-7.06,29.81-29.53Z"/>
        </g>
        <g>
          <path class="cls-1" d="M98.78,201.06s3.93-21.4-22.35-30.63c-36.06-12.7-60.15-20.75-60.15-20.75l1.64,22.12,80.86,29.26Z"/>
          <path class="cls-1" d="M99.19,201.06s-3.93-21.4,22.35-30.63c36.06-12.7,57.82-19.93,57.82-19.93l.69,21.3-80.86,29.26Z"/>
          <path class="cls-3" d="M98.82,199.13s-7.57-15.21-23.85-21.64c-14.18-5.61-47.89-18.03-47.89-18.03,0,0,29.3,8.6,43.66,13.73,13.86,4.96,23.77,10.38,28.09,25.94Z"/>
          <path class="cls-3" d="M98.29,199.13s6.1-15.21,22.38-21.64c14.18-5.61,48.1-18.03,48.1-18.03,0,0-29.51,8.6-43.87,13.73-13.86,4.96-22.3,10.38-26.61,25.94Z"/>
          <path class="cls-3" d="M98.32,199.12s-8.94-9.97-23.67-15.1c-13.57-4.71-48.92-16.87-48.92-16.87,0,0,28.85,11.64,49.73,19.15,7.07,2.54,15.41,8.17,17.7,10.84l5.15,1.98Z"/>
          <path class="cls-3" d="M98.31,199.12s8.78-9.97,23.51-15.1c13.57-4.71,48.92-16.87,48.92-16.87,0,0-28.85,11.64-49.73,19.15-7.07,2.54-13.12,7.56-17.8,11.5l-4.89,1.32Z"/>
          <path class="cls-3" d="M12.9,175.02l84.52,31.49c.72,.25,1.51,.25,2.23,0l82.15-30.63-2.23-7.73-81.03,30.2L15.13,167.27l-2.23,7.75Z"/>
        </g>
      </g>
    </g>
  </g>
</svg>