<svg xmlns="http://www.w3.org/2000/svg" xmlns:xlink="http://www.w3.org/1999/xlink" viewBox="0 0 265.4 334.9"><defs><style>.cls-1{fill:none;}.cls-2{font-size:19.3px;letter-spacing:0.8em;}.cls-2,.cls-3{font-family:JockeyOne-Regular, JockeyOne Regular;}.cls-3{font-size:65.92px;letter-spacing:0.19em;}.cls-4{letter-spacing:0.2em;}.cls-5{fill:#ea332d;}.cls-5,.cls-6,.cls-9{fill-rule:evenodd;}.cls-7{clip-path:url(#clip-path);}.cls-8{clip-path:url(#clip-path-2);}.cls-9{fill:#fff;}</style><clipPath id="clip-path"><polygon id="SVGID" class="cls-1" points="181.32 126.92 205.09 146.75 136.09 171.82 60.27 144.82 90.14 124.99 108.38 121.88 117.25 110.95 149.21 110.95 160.5 123.81 181.32 126.92"/></clipPath><clipPath id="clip-path-2"><path id="SVGID-2" data-name="SVGID" class="cls-1" d="M174.62,64.22A37.26,37.26,0,0,0,137.38,27h0a37.24,37.24,0,0,0-37.24,37.24V93.44c0,20.55,24.81,37.24,37.24,37.24S174.62,114,174.62,93.44Z"/></clipPath></defs><g id="Livello_2" data-name="Livello 2"><g id="OBJECTS"><text class="cls-2" transform="translate(82.67 330.08) scale(0.93 1)">SHOP</text><text class="cls-3" transform="translate(0 302.35) scale(0.93 1)">M<tspan class="cls-4" x="65.52" y="0">ANGA</tspan></text><g id="Page-2"><path class="cls-5" d="M212.11,79.41a79.43,79.43,0,0,0-158.86,0V144.5a79.43,79.43,0,0,0,158.86,0Z"/><g id="OBJECTS1"><path class="cls-6" d="M181.32,126.92l23.77,19.83-69,25.07-75.82-27L90.14,125l18.24-3.11L117.25,111h32l11.29,12.86Z"/><g class="cls-7"><path class="cls-5" d="M68.5,135,110,152.63,73.57,130.51"/><path class="cls-5" d="M201.33,131.86,160,150,201.1,138.6"/><path class="cls-5" d="M189.41,121.62l-41.31,18.1,41.07-11.36"/><path class="cls-5" d="M82.41,123.82l39.14,22.39L88,120"/></g><path class="cls-6" d="M174.62,64.22A37.26,37.26,0,0,0,137.38,27h0a37.24,37.24,0,0,0-37.24,37.24V93.44c0,20.55,24.81,37.24,37.24,37.24S174.62,114,174.62,93.44Z"/><g class="cls-8"><path class="cls-9" d="M167.93,74.11c-21.74,7-42.1,6.91-61.14,0,0,0-2.51,17,9.06,20.69,13.28,4.32,17.49-3,21.51-2.82,3.49.14,8.3,7.72,20.1,5C169.88,94.22,167.93,74.11,167.93,74.11Z"/></g><path class="cls-6" d="M114.11,81.4l14.61,6.33S120.08,96.45,114.11,81.4Z"/><path class="cls-6" d="M159.58,81.4,145,87.73S153.6,96.45,159.58,81.4Z"/><path class="cls-6" d="M102.41,87.53A32.87,32.87,0,0,1,77.71,66.8L66.91,79.5S87.5,100.4,102.41,87.53Z"/><path class="cls-6" d="M104.6,84.78A37.91,37.91,0,0,1,69.13,96l5.66,18.37S107.86,107.26,104.6,84.78Z"/><path class="cls-9" d="M134.13,201.06s3.92-21.4-22.35-30.63c-36.07-12.7-60.15-20.75-60.15-20.75l1.63,22.12Z"/><path class="cls-9" d="M134.54,201.06s-3.93-21.4,22.35-30.63c36.06-12.7,57.82-19.93,57.82-19.93l.69,21.3Z"/><path class="cls-6" d="M134.17,199.13s-7.57-15.22-23.85-21.64c-14.18-5.61-47.89-18-47.89-18s29.3,8.6,43.65,13.73C119.94,178.15,129.86,183.57,134.17,199.13Z"/><path class="cls-6" d="M133.64,199.13s6.1-15.22,22.38-21.64c14.18-5.61,48.1-18,48.1-18s-29.51,8.6-43.87,13.73C146.4,178.15,138,183.57,133.64,199.13Z"/><path class="cls-6" d="M133.66,199.12A62,62,0,0,0,110,184c-13.58-4.71-48.92-16.88-48.92-16.88s28.85,11.64,49.73,19.15c7.07,2.54,15.41,8.17,17.7,10.84Z"/><path class="cls-6" d="M133.66,199.12A60.53,60.53,0,0,1,157.17,184c13.57-4.71,48.91-16.88,48.91-16.88s-28.85,11.64-49.73,19.15c-7.07,2.54-13.12,7.56-17.8,11.5Z"/><path class="cls-6" d="M48.25,175l84.52,31.48a3.41,3.41,0,0,0,2.23,0l82.15-30.62-2.23-7.73-81,30.2L50.48,167.27Z"/></g></g></g></g></svg>